<svg width="48" height="48" viewBox="0 0 48 48" fill="none" xmlns="http://www.w3.org/2000/svg">
<path d="M32 2H16V10H32V2Z" fill="#1E3143"/>
<path d="M6 6H12V14H36V6H42V23.348C39.0074 21.9268 35.6079 21.6129 32.4057 22.4621C29.2035 23.3112 26.4062 25.2685 24.5111 27.9858C22.616 30.7031 21.7459 34.0044 22.0555 37.3027C22.3651 40.6011 23.8343 43.6828 26.202 46H6V6Z" fill="#1E3143"/>
<path d="M25 36C25 34.5555 25.2845 33.1251 25.8373 31.7905C26.3901 30.4559 27.2004 29.2433 28.2218 28.2218C29.2433 27.2004 30.4559 26.3901 31.7905 25.8373C33.1251 25.2845 34.5555 25 36 25C37.4445 25 38.8749 25.2845 40.2095 25.8373C41.5441 26.3901 42.7567 27.2004 43.7782 28.2218C44.7996 29.2433 45.6099 30.4559 46.1627 31.7905C46.7155 33.1251 47 34.5555 47 36C47 38.9174 45.8411 41.7153 43.7782 43.7782C41.7153 45.8411 38.9174 47 36 47C33.0826 47 30.2847 45.8411 28.2218 43.7782C26.1589 41.7153 25 38.9174 25 36ZM40.828 38L38 35.172V31.504H34V36.828L38 40.828L40.828 38Z" fill="#1E3143"/>
</svg>
