<svg width="48" height="48" viewBox="0 0 48 48" fill="none" xmlns="http://www.w3.org/2000/svg">
<g clip-path="url(#clip0_2130_901)">
<path fill-rule="evenodd" clip-rule="evenodd" d="M7.03 7.03C11.5306 2.52906 17.6349 0.000298497 24 0C33.36 0 38.866 4.606 42.936 9.064L46 6L48 8V18H38L36 16L39.394 12.606C35.674 8.498 31.404 5 24 5C18.9609 5 14.1282 7.00178 10.565 10.565C7.00178 14.1282 5 18.9609 5 24H0C0.000298497 17.6349 2.52906 11.5306 7.03 7.03ZM22.656 16.656L24 18L25.344 16.656C26.4049 15.5951 27.8437 14.9991 29.344 14.9991C30.0869 14.9991 30.8225 15.1455 31.5088 15.4297C32.1951 15.714 32.8187 16.1307 33.344 16.656C33.8693 17.1813 34.286 17.8049 34.5703 18.4912C34.8545 19.1775 35.0009 19.9131 35.0009 20.656C35.0009 21.3989 34.8545 22.1345 34.5703 22.8208C34.286 23.5071 33.8693 24.1307 33.344 24.656L24 34L14.656 24.656C13.5951 23.5951 12.9991 22.1563 12.9991 20.656C12.9991 19.1557 13.5951 17.7169 14.656 16.656C15.7169 15.5951 17.1557 14.9991 18.656 14.9991C20.1563 14.9991 21.5951 15.5951 22.656 16.656ZM48 24C48 30.3652 45.4714 36.4697 40.9706 40.9706C36.4697 45.4714 30.3652 48 24 48C14.64 48 9.134 43.394 5.064 38.936L2 42L0 40V30H10L12 32L8.606 35.394C12.326 39.502 16.596 43 24 43C29.0391 43 33.8718 40.9982 37.435 37.435C40.9982 33.8718 43 29.0391 43 24H48Z" fill="#1E3143"/>
</g>
<defs>
<clipPath id="clip0_2130_901">
<rect width="48" height="48" fill="white"/>
</clipPath>
</defs>
</svg>
