<svg width="48" height="48" viewBox="0 0 48 48" fill="none" xmlns="http://www.w3.org/2000/svg">
<g clip-path="url(#clip0_2130_561)">
<path d="M39 24C39.8281 24 40.6016 24.1562 41.3203 24.4688C42.0391 24.7812 42.6797 25.2109 43.2422 25.7578C43.8047 26.3047 44.2344 26.9375 44.5312 27.6562C44.8281 28.375 44.9844 29.1562 45 30V33H48V48H30V33H33V30C33 29.1719 33.1562 28.3984 33.4688 27.6797C33.7812 26.9609 34.2109 26.3203 34.7578 25.7578C35.3047 25.1953 35.9375 24.7656 36.6562 24.4688C37.375 24.1719 38.1562 24.0156 39 24ZM36 33H42V30C42 29.5781 41.9219 29.1875 41.7656 28.8281C41.6094 28.4688 41.3984 28.1562 41.1328 27.8906C40.8672 27.625 40.5469 27.4062 40.1719 27.2344C39.7969 27.0625 39.4062 26.9844 39 27C38.5781 27 38.1875 27.0781 37.8281 27.2344C37.4688 27.3906 37.1562 27.6016 36.8906 27.8672C36.625 28.1328 36.4062 28.4531 36.2344 28.8281C36.0625 29.2031 35.9844 29.5938 36 30V33ZM45 36H33V45H45V36ZM12 24C12 25.6562 12.3125 27.2109 12.9375 28.6641C13.5625 30.1172 14.4219 31.3828 15.5156 32.4609C16.6094 33.5391 17.8828 34.3984 19.3359 35.0391C20.7891 35.6797 22.3438 36 24 36C24.5 36 25 35.9688 25.5 35.9062C26 35.8438 26.5 35.75 27 35.625V38.6953C26.5 38.7891 26 38.8594 25.5 38.9062C25 38.9531 24.5 38.9844 24 39C23.1875 39 22.3906 38.9375 21.6094 38.8125C20.8281 38.6875 20.0469 38.4922 19.2656 38.2266L17.3672 43.9219C18.4453 44.2812 19.5391 44.5469 20.6484 44.7188C21.7578 44.8906 22.875 44.9844 24 45C25.0156 45 26.0156 44.9297 27 44.7891V47.8125C26.5 47.875 26 47.9219 25.5 47.9531C25 47.9844 24.5 48 24 48C21.7969 48 19.6719 47.7188 17.625 47.1562C15.5781 46.5938 13.6719 45.7812 11.9062 44.7188C10.1406 43.6562 8.52344 42.4062 7.05469 40.9688C5.58594 39.5312 4.32812 37.9141 3.28125 36.1172C2.23438 34.3203 1.42969 32.4062 0.867188 30.375C0.304688 28.3438 0.015625 26.2188 0 24C0 21.7969 0.28125 19.6719 0.84375 17.625C1.40625 15.5781 2.21875 13.6719 3.28125 11.9062C4.34375 10.1406 5.59375 8.52344 7.03125 7.05469C8.46875 5.58594 10.0859 4.32812 11.8828 3.28125C13.6797 2.23438 15.5938 1.42969 17.625 0.867188C19.6562 0.304688 21.7812 0.015625 24 0C26.2031 0 28.3281 0.28125 30.375 0.84375C32.4219 1.40625 34.3281 2.21875 36.0938 3.28125C37.8594 4.34375 39.4766 5.59375 40.9453 7.03125C42.4141 8.46875 43.6719 10.0859 44.7188 11.8828C45.7656 13.6797 46.5703 15.5938 47.1328 17.625C47.6953 19.6562 47.9844 21.7812 48 24C48 25.25 47.9062 26.4922 47.7188 27.7266C47.4844 26.8672 47.1406 26.0625 46.6875 25.3125C46.2344 24.5625 45.6641 23.8906 44.9766 23.2969C44.9297 21.2656 44.5781 19.2891 43.9219 17.3672C42.9688 17.6797 42.0234 17.9922 41.0859 18.3047C40.1484 18.6172 39.1953 18.9375 38.2266 19.2656C38.3203 19.5469 38.4062 19.8281 38.4844 20.1094C38.5625 20.3906 38.6328 20.6875 38.6953 21H35.625C35.2812 19.6719 34.7422 18.4609 34.0078 17.3672C33.2734 16.2734 32.3906 15.3203 31.3594 14.5078C30.3281 13.6953 29.1875 13.0781 27.9375 12.6562C26.6875 12.2344 25.375 12.0156 24 12C22.3438 12 20.7891 12.3125 19.3359 12.9375C17.8828 13.5625 16.6172 14.4219 15.5391 15.5156C14.4609 16.6094 13.6016 17.8828 12.9609 19.3359C12.3203 20.7891 12 22.3438 12 24ZM24 3C22.875 3 21.7578 3.08594 20.6484 3.25781C19.5391 3.42969 18.4453 3.70312 17.3672 4.07812C17.6797 5.03125 17.9922 5.97656 18.3047 6.91406C18.6172 7.85156 18.9375 8.80469 19.2656 9.77344C20.0312 9.50781 20.8047 9.3125 21.5859 9.1875C22.3672 9.0625 23.1719 9 24 9C24.8125 9 25.6094 9.0625 26.3906 9.1875C27.1719 9.3125 27.9531 9.50781 28.7344 9.77344L30.6328 4.07812C29.5547 3.71875 28.4609 3.45312 27.3516 3.28125C26.2422 3.10938 25.125 3.01562 24 3ZM9.77344 28.7344C9.50781 27.9688 9.3125 27.1953 9.1875 26.4141C9.0625 25.6328 9 24.8281 9 24C9 23.1875 9.0625 22.3906 9.1875 21.6094C9.3125 20.8281 9.50781 20.0469 9.77344 19.2656L4.07812 17.3672C3.71875 18.4453 3.45312 19.5391 3.28125 20.6484C3.10938 21.7578 3.01562 22.875 3 24C3 25.125 3.08594 26.2422 3.25781 27.3516C3.42969 28.4609 3.70312 29.5547 4.07812 30.6328C5.03125 30.3203 5.97656 30.0078 6.91406 29.6953C7.85156 29.3828 8.80469 29.0625 9.77344 28.7344Z" fill="#1E3143"/>
</g>
<defs>
<clipPath id="clip0_2130_561">
<rect width="48" height="48" fill="white"/>
</clipPath>
</defs>
</svg>
