<svg width="48" height="48" viewBox="0 0 48 48" fill="none" xmlns="http://www.w3.org/2000/svg">
<path d="M23.9997 4.5C23.9997 4.10218 24.1577 3.72064 24.439 3.43934C24.7203 3.15804 25.1019 3 25.4997 3C28.0605 3 30.5962 3.50438 32.962 4.48435C35.3279 5.46432 37.4775 6.90068 39.2883 8.71142C41.099 10.5222 42.5354 12.6718 43.5153 15.0377C44.4953 17.4035 44.9997 19.9392 44.9997 22.5C44.9997 22.8978 44.8416 23.2794 44.5603 23.5607C44.279 23.842 43.8975 24 43.4997 24H25.4997C25.1019 24 24.7203 23.842 24.439 23.5607C24.1577 23.2794 23.9997 22.8978 23.9997 22.5V4.5ZM20.9997 10.566C20.9997 10.3576 20.9563 10.1515 20.8722 9.96087C20.7882 9.7702 20.6653 9.59914 20.5115 9.45858C20.3577 9.31802 20.1763 9.21105 19.9788 9.1445C19.7814 9.07794 19.5722 9.05325 19.3647 9.072C15.958 9.3826 12.7104 10.6575 10.0022 12.7474C7.29403 14.8373 5.23744 17.6556 4.07333 20.8722C2.90923 24.0888 2.68582 27.5706 3.42927 30.9096C4.17271 34.2487 5.85224 37.3067 8.27111 39.7256C10.69 42.1444 13.748 43.824 17.0871 44.5674C20.4261 45.3109 23.9078 45.0874 27.1245 43.9233C30.3411 42.7592 33.1594 40.7026 35.2493 37.9945C37.3392 35.2863 38.6141 32.0387 38.9247 28.632C38.943 28.425 38.918 28.2164 38.8515 28.0195C38.7849 27.8226 38.6781 27.6417 38.5379 27.4883C38.3977 27.3348 38.2272 27.2122 38.0371 27.1281C37.847 27.0441 37.6415 27.0004 37.4337 27H20.9997V10.566Z" fill="#1E3143"/>
</svg>
