<svg width="48" height="48" viewBox="0 0 48 48" fill="none" xmlns="http://www.w3.org/2000/svg">
<path d="M13.9961 8V22L23.9961 17L33.9961 22V8H39.9961C40.5265 8 41.0352 8.21071 41.4103 8.58579C41.7854 8.96086 41.9961 9.46957 41.9961 10V42C41.9961 42.5304 41.7854 43.0391 41.4103 43.4142C41.0352 43.7893 40.5265 44 39.9961 44H7.99609C7.46566 44 6.95695 43.7893 6.58188 43.4142C6.20681 43.0391 5.99609 42.5304 5.99609 42V10C5.99609 9.46957 6.20681 8.96086 6.58188 8.58579C6.95695 8.21071 7.46566 8 7.99609 8H13.9961ZM23.9961 16L14.9961 6H32.9961L23.9961 16ZM25.9961 22.472L23.9961 21.472L21.9961 22.472V40H25.9961V22.472ZM29.9961 28V32H37.9961V28H29.9961Z" fill="#1E3143"/>
</svg>
